<svg width="82" height="17" viewBox="0 0 82 17" fill="none" xmlns="http://www.w3.org/2000/svg">
<path d="M0.328 13V1.8H2.472L9.08 9.864H8.04V1.8H10.6V13H8.472L1.848 4.936H2.888V13H0.328ZM16.7059 13.128C15.9912 13.128 15.3512 12.9893 14.7859 12.712C14.2312 12.4347 13.7992 12.0133 13.4899 11.448C13.1805 10.872 13.0259 10.1413 13.0259 9.256V4.392H15.5219V8.888C15.5219 9.60267 15.6712 10.1307 15.9699 10.472C16.2792 10.8027 16.7112 10.968 17.2659 10.968C17.6499 10.968 17.9912 10.888 18.2899 10.728C18.5885 10.5573 18.8232 10.3013 18.9939 9.96C19.1645 9.608 19.2499 9.17067 19.2499 8.648V4.392H21.7459V13H19.3779V10.632L19.8099 11.32C19.5219 11.9173 19.0952 12.3707 18.5299 12.68C17.9752 12.9787 17.3672 13.128 16.7059 13.128ZM27.5783 13.128C26.5649 13.128 25.7756 12.872 25.2103 12.36C24.6449 11.8373 24.3623 11.064 24.3623 10.04V2.488H26.8583V10.008C26.8583 10.3707 26.9543 10.6533 27.1463 10.856C27.3383 11.048 27.5996 11.144 27.9303 11.144C28.3249 11.144 28.6609 11.0373 28.9383 10.824L29.6103 12.584C29.3543 12.7653 29.0449 12.904 28.6823 13C28.3303 13.0853 27.9623 13.128 27.5783 13.128ZM23.0343 6.504V4.584H29.0023V6.504H23.0343ZM31.0114 13V4.392H33.3954V6.824L33.0594 6.12C33.3154 5.512 33.726 5.05333 34.2914 4.744C34.8567 4.424 35.5447 4.264 36.3554 4.264V6.568C36.2487 6.55733 36.1527 6.552 36.0674 6.552C35.982 6.54133 35.8914 6.536 35.7954 6.536C35.1127 6.536 34.558 6.73333 34.1314 7.128C33.7154 7.512 33.5074 8.11467 33.5074 8.936V13H31.0114ZM37.8551 13V4.392H40.3511V13H37.8551ZM39.1031 3.192C38.6445 3.192 38.2711 3.05867 37.9831 2.792C37.6951 2.52533 37.5511 2.19467 37.5511 1.8C37.5511 1.40533 37.6951 1.07467 37.9831 0.808C38.2711 0.541333 38.6445 0.407999 39.1031 0.407999C39.5618 0.407999 39.9351 0.535999 40.2231 0.792C40.5111 1.03733 40.6551 1.35733 40.6551 1.752C40.6551 2.168 40.5111 2.51467 40.2231 2.792C39.9458 3.05867 39.5725 3.192 39.1031 3.192Z" fill="#302C2B"/>
<path d="M46.5236 13.192C45.6276 13.192 44.769 13.0747 43.9476 12.84C43.1263 12.5947 42.465 12.28 41.9636 11.896L42.8436 9.944C43.3236 10.2853 43.889 10.568 44.5396 10.792C45.201 11.0053 45.8676 11.112 46.5396 11.112C47.0516 11.112 47.4623 11.064 47.7716 10.968C48.0916 10.8613 48.3263 10.7173 48.4756 10.536C48.625 10.3547 48.6996 10.1467 48.6996 9.912C48.6996 9.61333 48.5823 9.37867 48.3476 9.208C48.113 9.02667 47.8036 8.88267 47.4196 8.776C47.0356 8.65867 46.609 8.552 46.1396 8.456C45.681 8.34933 45.217 8.22133 44.7476 8.072C44.289 7.92267 43.8676 7.73067 43.4836 7.496C43.0996 7.26133 42.785 6.952 42.5396 6.568C42.305 6.184 42.1876 5.69333 42.1876 5.096C42.1876 4.456 42.3583 3.87467 42.6996 3.352C43.0516 2.81867 43.5743 2.39733 44.2676 2.088C44.9716 1.768 45.8516 1.608 46.9076 1.608C47.6116 1.608 48.305 1.69333 48.9876 1.864C49.6703 2.024 50.273 2.26933 50.7956 2.6L49.9956 4.568C49.473 4.26933 48.9503 4.05067 48.4276 3.912C47.905 3.76267 47.393 3.688 46.8916 3.688C46.3903 3.688 45.9796 3.74667 45.6596 3.864C45.3396 3.98133 45.1103 4.136 44.9716 4.328C44.833 4.50933 44.7636 4.72267 44.7636 4.968C44.7636 5.256 44.881 5.49067 45.1156 5.672C45.3503 5.84267 45.6596 5.98133 46.0436 6.088C46.4276 6.19467 46.849 6.30133 47.3076 6.408C47.777 6.51467 48.241 6.63733 48.6996 6.776C49.169 6.91467 49.5956 7.10133 49.9796 7.336C50.3636 7.57067 50.673 7.88 50.9076 8.264C51.153 8.648 51.2756 9.13333 51.2756 9.72C51.2756 10.3493 51.0996 10.9253 50.7476 11.448C50.3956 11.9707 49.8676 12.392 49.1636 12.712C48.4703 13.032 47.5903 13.192 46.5236 13.192ZM53.8025 16.232C53.3545 16.232 52.9118 16.1627 52.4745 16.024C52.0372 15.8853 51.6798 15.6933 51.4025 15.448L52.3145 13.672C52.5065 13.8427 52.7252 13.976 52.9705 14.072C53.2265 14.168 53.4772 14.216 53.7225 14.216C54.0745 14.216 54.3518 14.1307 54.5545 13.96C54.7678 13.8 54.9598 13.528 55.1305 13.144L55.5785 12.088L55.7705 11.816L58.8585 4.392H61.2585L57.3705 13.528C57.0932 14.2213 56.7732 14.7653 56.4105 15.16C56.0585 15.5547 55.6638 15.832 55.2265 15.992C54.7998 16.152 54.3252 16.232 53.8025 16.232ZM55.2745 13.336L51.4345 4.392H54.0105L56.9865 11.592L55.2745 13.336ZM67.509 4.264C68.1917 4.264 68.7997 4.40267 69.333 4.68C69.877 4.94667 70.3037 5.36267 70.613 5.928C70.9223 6.48267 71.077 7.19733 71.077 8.072V13H68.581V8.456C68.581 7.76267 68.4263 7.25067 68.117 6.92C67.8183 6.58933 67.3917 6.424 66.837 6.424C66.4423 6.424 66.085 6.50933 65.765 6.68C65.4557 6.84 65.2103 7.09067 65.029 7.432C64.8583 7.77333 64.773 8.21067 64.773 8.744V13H62.277V4.392H64.661V6.776L64.213 6.056C64.5223 5.48 64.965 5.03733 65.541 4.728C66.117 4.41867 66.773 4.264 67.509 4.264ZM77.562 13.128C76.634 13.128 75.8073 12.9413 75.082 12.568C74.3567 12.184 73.786 11.656 73.37 10.984C72.9647 10.312 72.762 9.54933 72.762 8.696C72.762 7.832 72.9647 7.06933 73.37 6.408C73.786 5.736 74.3567 5.21333 75.082 4.84C75.8073 4.456 76.634 4.264 77.562 4.264C78.4687 4.264 79.258 4.456 79.93 4.84C80.602 5.21333 81.098 5.752 81.418 6.456L79.482 7.496C79.258 7.09067 78.9753 6.792 78.634 6.6C78.3033 6.408 77.9407 6.312 77.546 6.312C77.1193 6.312 76.7353 6.408 76.394 6.6C76.0527 6.792 75.7807 7.064 75.578 7.416C75.386 7.768 75.29 8.19467 75.29 8.696C75.29 9.19733 75.386 9.624 75.578 9.976C75.7807 10.328 76.0527 10.6 76.394 10.792C76.7353 10.984 77.1193 11.08 77.546 11.08C77.9407 11.08 78.3033 10.9893 78.634 10.808C78.9753 10.616 79.258 10.312 79.482 9.896L81.418 10.952C81.098 11.6453 80.602 12.184 79.93 12.568C79.258 12.9413 78.4687 13.128 77.562 13.128Z" fill="#FBA81C" fill-opacity="0.5"/>
</svg>
